<?xml version="1.0" encoding="UTF-8" standalone="no"?>
<svg
   xmlns:dc="http://purl.org/dc/elements/1.1/"
   xmlns:cc="http://creativecommons.org/ns#"
   xmlns:rdf="http://www.w3.org/1999/02/22-rdf-syntax-ns#"
   xmlns:svg="http://www.w3.org/2000/svg"
   xmlns="http://www.w3.org/2000/svg"
   xmlns:sodipodi="http://sodipodi.sourceforge.net/DTD/sodipodi-0.dtd"
   xmlns:inkscape="http://www.inkscape.org/namespaces/inkscape"
   version="1.1"
   id="Layer_1"
   x="0px"
   y="0px"
   viewBox="0 0 737.33228 549.41443"
   xml:space="preserve"
   sodipodi:docname="home.svg"
   inkscape:version="1.0.1 (c497b03c, 2020-09-10)"
   width="737.33228"
   height="549.41443"><metadata
   id="metadata1080"><rdf:RDF><cc:Work
       rdf:about=""><dc:format>image/svg+xml</dc:format><dc:type
         rdf:resource="http://purl.org/dc/dcmitype/StillImage" /><dc:title></dc:title></cc:Work></rdf:RDF></metadata><defs
   id="defs1078" /><sodipodi:namedview
   pagecolor="#ffffff"
   bordercolor="#666666"
   borderopacity="1"
   objecttolerance="10"
   gridtolerance="10"
   guidetolerance="10"
   inkscape:pageopacity="0"
   inkscape:pageshadow="2"
   inkscape:window-width="1440"
   inkscape:window-height="855"
   id="namedview1076"
   showgrid="false"
   inkscape:zoom="0.80307467"
   inkscape:cx="132.2"
   inkscape:cy="305.21443"
   inkscape:window-x="0"
   inkscape:window-y="23"
   inkscape:window-maximized="1"
   inkscape:current-layer="Layer_1" />
<style
   type="text/css"
   id="style597">
	.st0{fill-rule:evenodd;clip-rule:evenodd;fill:#ACDFE6;}
	.st1{fill-rule:evenodd;clip-rule:evenodd;fill:#D9F1FD;}
	.st2{fill-rule:evenodd;clip-rule:evenodd;fill:#60CC60;}
	.st3{fill-rule:evenodd;clip-rule:evenodd;fill:#428C42;}
	.st4{fill-rule:evenodd;clip-rule:evenodd;fill:#8D959E;}
	.st5{fill-rule:evenodd;clip-rule:evenodd;fill:#E1E6EA;}
	.st6{fill-rule:evenodd;clip-rule:evenodd;fill:#4D4D4D;}
	.st7{fill:#ACDFE6;}
	.st8{fill:#F2F2F2;}
	.st9{fill:#428C42;}
	.st10{fill:#5CB25D;}
	.st11{fill:#2F2E41;}
	.st12{opacity:0.78;fill:#ACDFE6;}
	.st13{opacity:0.1;fill:#00BFA6;enable-background:new    ;}
	.st14{fill:#D6D6E3;}
	.st15{fill:#AEBEE1;}
	.st16{fill:#535461;}
	.st17{opacity:0.1;enable-background:new    ;}
	.st18{fill:#E3EDF9;}
	.st19{fill:url(#SVGID_1_);}
	.st20{fill:#F8B9BF;}
	.st21{fill:#D9DFE8;}
	.st22{fill:#00BFA6;}
	.st23{opacity:0.1;}
	.st24{fill:#68739D;}
	.st25{fill:#6394E2;}
	.st26{fill:#B96B6B;}
	.st27{fill:none;stroke:#535461;stroke-width:2;stroke-miterlimit:10;}
	.st28{fill:url(#SVGID_2_);}
	.st29{fill:#FA595F;}
	.st30{fill:#F37291;}
	.st31{fill:#96A2D0;}
</style>
<path
   class="st0"
   d="m 503.4,539.01443 c -16,10.4 -29.2,10.4 -63.4,10.4 -34.2,0 -89.3,0 -146.7,0 -57.4,0 -117.2,0 -159.8,0 -42.6,0 -68.2,0 -90.3,-22.3 -22.1,-22.3 -40.9,-67 -38.3,-113.6 2.6,-46.6 26.5,-95.2 61.9,-119.4 35.4,-24.3 82.2,-24.3 120.4,-3.2 38.3,21.1 68,63.3 97.4,72 29.4,8.7 58.6,-16.1 85.6,-30.9 27,-14.9 51.9,-19.8 76.6,-11.5 24.7,8.3 49.1,29.7 67.5,59.7 18.4,30 30.7,68.4 27.4,98.1 -3.3,29.5 -22.2,50.3 -38.3,60.7"
   id="path599" />
<path
   class="st1"
   d="m 148.5,363.81443 c -19.7,-16.7 -39.3,-26.7 -59.7,-33.1 -15.9,-5 -32.3,-7.8 -49.7,-10 3.3,-4.2 6.7,-8.2 10.4,-12 14.9,2.1 29.3,4.9 43.3,9.3 22,6.9 43.2,17.7 64.4,35.7 2.8,2.4 3.1,6.5 0.8,9.3 -2.5,2.8 -6.7,3.1 -9.5,0.8 m 227.4,-22.7 c -3.4,1.4 -5,5.3 -3.6,8.6 1.4,3.4 5.3,5 8.6,3.6 21.3,-8.8 43.1,-19.8 65.5,-33.1 -6.6,-2.2 -13.3,-3.4 -20,-3.8 -17.2,9.7 -34.1,17.9 -50.5,24.7 z m -320.3,-38.3 c 97.8,1.8 114,82.3 217.6,55.2 -25.8,-14.3 -52.7,-48.7 -86,-67.2 -38.3,-21.1 -85.1,-21.1 -120.4,3.2 -3.9,2.6 -7.6,5.6 -11.2,8.8 z"
   id="path601" />
<path
   class="st2"
   d="m 490.6,349.51443 c 8.6,8.8 16.6,19.1 23.7,30.6 18.4,30 30.7,68.4 27.4,98.1 -1.3,11.5 -4.9,21.6 -9.8,30.3 H 364.7 c -0.2,-0.3 -0.5,-0.5 -0.7,-0.8 -10.6,0.2 -20.1,-6.3 -23.7,-16.2 -3.6,-9.9 -0.5,-21 7.7,-27.7 8.2,-6.6 19.8,-7.3 28.7,-1.6 -1.3,-1.7 -1.3,-4 0,-5.6 0.4,-0.5 0.9,-0.9 1.4,-1.2 -4.1,-1.7 -7.6,-4.8 -9.8,-8.8 2.7,-0.6 5.6,-0.2 8.1,0.9 -1,-2.8 -1.4,-5.8 -0.8,-8.8 1.1,-6.3 5.7,-11.5 11.9,-13.3 6.2,-1.8 12.8,0 17.2,4.7 -0.9,-3.4 0.7,-7 3.8,-8.8 3.1,-1.7 7,-1.1 9.4,1.4 -3.9,-3.5 -5.5,-8.9 -4.2,-14 1.3,-5.1 5.2,-9.1 10.3,-10.4 2.6,-0.7 5.3,-0.6 7.8,0.2 -1.2,-2.4 -1.5,-5.2 -0.7,-7.8 3.1,1.4 5.5,3.8 6.8,6.7 0.4,-0.9 1,-1.8 1.9,-2.4 2.3,-1.7 5.5,-1.5 7.5,0.5 -4.9,-4.1 -6.5,-11 -4.1,-16.9 2.4,-5.9 8.4,-9.6 14.8,-9 6.4,0.5 11.7,5.1 13.1,11.3 -0.6,-2.8 0.8,-5.7 3.4,-6.9 2.6,-1.2 5.7,-0.5 7.5,1.7 -4.5,-4.7 -5.6,-11.7 -2.8,-17.6 0.9,-1.8 2.1,-3.4 3.5,-4.8 -0.9,-0.2 -1.8,-0.5 -2.7,-1 -2.3,-1.4 -3.7,-4 -3.6,-6.7 4.1,-0.1 7.9,1.8 10.2,5.1 1.2,-0.5 2.6,-0.9 4,-1.2"
   id="path603" />
<path
   class="st3"
   d="m 512.1,376.71443 c 0.7,1.1 1.4,2.2 2.1,3.4 18.4,30 30.7,68.4 27.4,98.1 -1.3,11.5 -4.9,21.6 -9.8,30.3 H 364.7 c -0.2,-0.3 -0.5,-0.5 -0.7,-0.8 -3.1,0.1 -6.1,-0.4 -8.9,-1.4 -3.3,-4.7 -4.6,-10.6 -3.4,-16.4 1.7,-8.1 8.1,-14.5 16.2,-16.2 8.1,-1.7 16.5,1.6 21.4,8.3 0,-1.7 0.8,-3.4 2.1,-4.4 1.4,-1.1 3.2,-1.4 4.8,-1 -4.4,-5.9 -3.7,-14.1 1.6,-19.3 5.3,-5.1 13.5,-5.6 19.3,-1.1 -1.9,-0.8 -3.1,-2.5 -3.2,-4.6 -0.1,-2 1,-3.9 2.9,-4.8 1.8,-0.9 4,-0.6 5.5,0.7 -4.3,-4.3 -5.8,-10.7 -3.8,-16.5 2,-5.8 7.1,-9.9 13.2,-10.6 6.1,-0.7 12,2.1 15.3,7.3 -1.4,-4.2 0.5,-8.8 4.5,-10.7 4,-1.9 8.7,-0.6 11.2,3.1 -6.1,-8.3 -4.5,-19.9 3.6,-26.2 8.1,-6.3 19.8,-4.9 26.2,3.1 -1.5,-1.8 -1.9,-4.3 -0.9,-6.5 1,-2.2 3.1,-3.5 5.5,-3.6 2.4,0 4.5,1.4 5.6,3.5 -2,-4.8 0,-10.3 4.7,-12.7 1.5,-0.7 3.1,-1 4.7,-1"
   id="path605" />
<path
   class="st2"
   d="m 27.9,507.11443 c -14.7,-24.2 -25,-58.4 -23,-93.7 1,-17.5 5,-35.3 11.4,-52 2.1,-1.4 4.5,-2.3 7,-2.7 7.3,-1.2 14.6,2.2 18.3,8.5 2.4,3.9 3.1,8.5 2.2,12.8 1.2,-1 2.6,-1.6 4.1,-2.1 -0.7,2.1 -1.4,4 -2.2,5.4 2.3,0.1 4.3,1.6 4.9,3.9 0.6,2.3 -0.4,4.7 -2.5,5.9 3.9,-3.7 9,-5.8 14.3,-5.9 -0.3,-3.3 1.1,-6 4.3,-8 1.7,3 1.3,5.8 -1.2,8.2 1.4,0.2 2.9,0.5 4.3,0.9 7.6,2.4 13.2,8.8 14.7,16.6 1.1,5.5 0,11.1 -2.9,15.7 0.3,0.1 0.5,0.2 0.7,0.4 -0.2,0.6 -0.5,1.2 -0.8,1.8 0.6,0 1.2,0 1.8,0.2 2.5,0.7 4.2,3 4,5.6 -0.2,2.6 -2.2,4.7 -4.8,4.9 6.5,-1.8 13.4,1.5 16,7.8 1.6,4 1.2,8.3 -0.8,11.8 1.4,-0.3 2.8,-0.3 4.2,0.2 -1.1,1.9 -2.4,3.4 -3.9,4.4 0.1,0.1 0.1,0.1 0.2,0.2 1.7,1.4 1.9,3.8 0.6,5.6 1.2,-4.2 5,-7 9.4,-7.1 4.3,-0.1 8.2,2.7 9.5,6.9 1.3,4.1 -0.2,8.7 -3.8,11.1 9.1,-8.4 23.1,-8.4 32.3,-0.1 6.6,6 8.7,15.4 6.6,23.9 1.6,-0.9 3.6,-1.3 6,-1.3 -1.5,6.4 -5,9.9 -10.4,10.5 H 27.9 Z"
   id="path607" />
<path
   class="st3"
   d="m 27.9,507.11443 c -14.7,-24.2 -25,-58.4 -23,-93.7 0.6,-10.4 2.2,-21 4.8,-31.3 3,-1.5 6.6,-1.3 9.4,0.7 3.2,2.2 4.5,6.3 3.4,10 0.9,-1.9 2.8,-3 4.9,-2.9 2.1,0.2 3.8,1.7 4.3,3.7 0.5,2 -0.4,4.1 -2.2,5.2 6.7,-4.4 15.7,-2.5 20.2,4.3 4.4,6.7 2.6,15.7 -4.1,20.2 2.6,-1.9 6.2,-1.4 8.2,1 2,2.5 1.7,6.1 -0.7,8.2 3.4,-4.9 9.6,-7 15.3,-5.1 5.7,1.9 9.4,7.3 9.2,13.2 -0.2,6 -4.4,11 -10.2,12.5 2.4,-0.4 4.8,0.6 6.2,2.6 1.4,2 1.6,4.6 0.5,6.7 2.5,-4.9 7.8,-7.7 13.3,-7 5.5,0.7 9.9,4.6 11.2,10 1.3,5.3 -0.9,10.9 -5.5,14 1.5,-2.3 4.3,-3.4 6.9,-2.7 2.6,0.7 4.6,2.9 4.8,5.6 0.2,2.7 -1.3,5.3 -3.8,6.4 1.6,-0.9 3.5,-0.6 4.9,0.6 1.3,1.2 1.7,3.2 1,4.8 6.8,-9.4 19.6,-12.3 29.9,-6.8 7.4,4 11.9,11.6 12.2,19.6 -0.1,0 -0.3,0 -0.4,0.1 H 27.9 Z"
   id="path609" />
<path
   class="st4"
   d="m 475.3,401.51443 c -9.7,0 -17.6,7.9 -17.6,17.6 v 89.4 h 35.2 v -89.4 c 0,-9.8 -7.9,-17.6 -17.6,-17.6"
   id="path611" />
<path
   class="st4"
   d="m 23.5,401.51443 c -9.7,0 -17.6,7.9 -17.6,17.6 v 0 22.6 c 3.1,25.5 11.8,49 22.9,66.8 h 12.3 v -89.4 c 0,-9.8 -7.9,-17.6 -17.6,-17.6"
   id="path613" />
<rect
   x="457.70001"
   y="440.61444"
   class="st5"
   width="35.200001"
   height="13.7"
   id="rect615" />
<rect
   x="457.70001"
   y="461.81439"
   class="st5"
   width="35.200001"
   height="22.799999"
   id="rect617" />
<path
   class="st5"
   d="m 9.5,461.81443 c 1.9,8 4.4,15.6 7.3,22.8 h 24.3 v -22.8 z"
   id="path619" />
<path
   class="st5"
   d="M 201.8,506.11443 H 81.5 v 40.6 c 13.9,2.6 30,2.6 50.1,2.6 h 70.2 z m 246.9,0 H 328.4 v 43.3 h 114.8 c 1.9,0 3.8,0 5.5,0 z"
   id="path621" />
<path
   class="st6"
   d="m 503.4,539.01443 c -15.5,10.1 -28.4,10.4 -60.2,10.4 -103.9,0 -207.8,0 -311.7,0 -41.5,0 -66.5,-0.3 -88.3,-22.3 -3.5,-3.5 -6.9,-7.6 -10.1,-12.1 H 528 c -7.3,10.5 -16.3,18.6 -24.6,24"
   id="path623" />
<g
   id="g629"
   transform="translate(-550.8,-78.785569)">
	<path
   class="st7"
   d="m 652.2,261.6 c 0,0 -19.1,-19.4 -42.3,4.9 0,0 25.7,-14.3 39.7,-1.8 14,12.5 3,-7.4 26,-14.8 0.1,-0.1 -12.9,-2.2 -23.4,11.7 z"
   id="path625" />
	<path
   class="st7"
   d="m 593.1,224.7 c 0,0 -19.1,-19.4 -42.3,4.9 0,0 25.7,-14.3 39.7,-1.8 14,12.5 3,-7.4 26,-14.8 0.1,-0.1 -12.9,-2.2 -23.4,11.7 z"
   id="path627" />
</g>
<path
   class="st8"
   d="m 159.5,528.91443 v 0.2 0.1 c 0,0 0,0 0,-0.1 -0.1,-0.1 -0.1,-0.2 0,-0.2 -0.1,0 0,0 0,0 z"
   id="path631" />
<path
   class="st8"
   d="m 149.5,529.41443 c 0,0 -0.1,-0.1 -0.1,-0.1 0,0 0,0 0.1,0 z"
   id="path633" />
<path
   class="st8"
   d="m 368.8,528.91443 v 0.2 0.1 c 0,0 0,0 0,-0.1 0,-0.1 0,-0.2 0,-0.2 0,0 0,0 0,0 z"
   id="path635" />
<path
   class="st8"
   d="m 378.7,529.41443 c 0,0 0.1,-0.1 0.1,-0.1 0,0 0,0 -0.1,0 z"
   id="path637" />
<path
   class="st9"
   d="m 243.6,309.71443 c -1.1,0.4 -2,1.1 -2.5,2.2 l -3.4,6.9 -0.9,1.8 c -1,2.1 -0.2,4.7 1.9,5.7 l 26.2,12.9 46.5,22.9 c 2,1 4.4,0.3 5.6,-1.7 0.1,-0.1 0.1,-0.2 0.1,-0.3 l 2.6,-5.3 1.7,-3.5 c 0.1,-0.3 0.2,-0.6 0.3,-0.9 0.2,-0.8 0.2,-1.6 -0.1,-2.4 -0.4,-1.1 -1.1,-2 -2.2,-2.5 l -5.5,-2.7 -41,-20.2 -26.2,-12.9 c -0.8,-0.2 -2,-0.3 -3.1,0 z"
   id="path639" />
<path
   class="st10"
   d="m 235.5,312.31443 c -0.5,0.7 -0.9,1.4 -1.2,2.2 -2.7,6.2 0.1,13.3 6.2,16.1 l 20.5,9 c 1.3,0.6 2.8,0.5 4.1,-0.3 0.5,-0.3 0.9,-0.7 1.2,-1.2 0.1,-0.2 0.3,-0.4 0.4,-0.7 l 6.4,-14.5 c 0,0 0,-0.1 0,-0.1 0.9,-2.1 -0.1,-4.6 -2.2,-5.5 l -20.5,-9 c -5.3,-2.4 -11.5,-0.7 -14.9,4 z"
   id="path641" />
<path
   class="st10"
   d="M 291.7,378.11443 H 282 c -2.4,0 -4.3,1.9 -4.3,4.3 v 60.6 c 0,2.4 1.9,4.3 4.3,4.3 h 9.7 c 2.4,0 4.3,-1.9 4.3,-4.3 0,0 0,0 0,0 v -60.6 c 0,-2.4 -2,-4.3 -4.3,-4.3 0,0 0,0 0,0 z"
   id="path643" />
<path
   class="st9"
   d="m 285.7,400.11443 c -0.7,0 -1.4,-0.1 -2.1,-0.4 l -54.2,-21.2 c -3,-1.2 -4.5,-4.6 -3.2,-7.6 l 4.6,-11.8 c 0.6,-1.5 1.7,-2.6 3.1,-3.3 1.4,-0.6 3,-0.7 4.5,-0.1 l 54.2,21.2 c 1.4,0.6 2.6,1.7 3.2,3.1 0.6,1.4 0.6,3.1 0.1,4.5 l -4.6,11.8 c -1,2.2 -3.2,3.8 -5.6,3.8 z"
   id="path645" />
<path
   class="st11"
   d="m 292,451.01443 h -10.5 c -2,0 -3.6,-1.6 -3.6,-3.6 0,-2 1.6,-3.6 3.6,-3.6 H 292 c 2,0 3.6,1.6 3.6,3.6 0,2 -1.6,3.6 -3.6,3.6 z"
   id="path647" />
<path
   class="st11"
   d="m 209,385.41443 c -1.3,0 -2.6,-0.1 -3.9,-0.4 -5.8,-1.3 -8,-3.9 -8.4,-5.2 -0.2,-0.4 -0.1,-0.9 0.2,-1.2 0.3,-0.3 0.7,-0.3 1.1,-0.1 1.8,0.6 27.6,-4.5 36.7,-6.6 3.8,-0.9 6.5,-0.7 7.9,0.4 0.6,0.4 1,1.1 1,1.9 v 0.2 l -18,6.7 c -0.5,0.2 -8.8,4.3 -16.6,4.3 z"
   id="path649" />
<path
   class="st11"
   d="m 349.9,464.71443 c -0.3,0 -0.5,-0.2 -0.6,-0.4 l -34,-77.1 c -0.3,-0.7 -1.1,-1.2 -1.8,-1.2 l -92.8,1.9 c -0.7,0 -1.3,0.4 -1.6,0.9 l -44.5,72.8 c -0.2,0.3 -0.6,0.4 -0.9,0.2 -0.3,-0.2 -0.4,-0.6 -0.2,-0.9 l 44.5,-72.9 c 0.6,-1 1.6,-1.6 2.7,-1.6 l 92.8,-1.9 c 1.3,0 2.5,0.7 3.1,2 l 33.9,77.2 c 0.1,0.3 0,0.7 -0.3,0.9 -0.1,0.1 -0.2,0.1 -0.3,0.1 z"
   id="path651" />
<path
   class="st11"
   d="m 242.4,467.51443 c -0.3,0 -0.6,-0.2 -0.6,-0.5 l -21.5,-74.7 c -0.1,-0.3 0.1,-0.7 0.5,-0.8 0.3,-0.1 0.7,0.1 0.8,0.4 l 21.5,74.7 c 0.1,0.3 -0.1,0.7 -0.5,0.8 0,0 0,0 0,0 -0.1,0.1 -0.1,0.1 -0.2,0.1 z"
   id="path653" />
<path
   class="st9"
   d="m 247,380.91443 h -21.1 c -8.2,0 -14.8,-6.6 -14.8,-14.8 v -3.3 c 0,-8.2 6.6,-14.8 14.8,-14.8 H 247 c 8.2,0 14.8,6.6 14.8,14.8 v 3.3 c 0,8.2 -6.6,14.8 -14.8,14.8 z"
   id="path655" />
<circle
   class="st11"
   cx="355.20001"
   cy="470.91443"
   r="4"
   id="circle657" />
<circle
   class="st11"
   cx="169.40001"
   cy="470.91443"
   r="4"
   id="circle659" />
<path
   class="st11"
   d="m 310.3,356.91443 c -1.3,0 -2.3,-1 -2.3,-2.3 0,-1 0.6,-1.8 1.5,-2.2 l 19.9,-7 c 1.2,-0.4 2.5,0.2 2.9,1.4 0.4,1.2 -0.2,2.5 -1.4,2.9 l -19.9,7 c -0.1,0.1 -0.4,0.2 -0.7,0.2 z"
   id="path661" />
<path
   class="st11"
   d="m 258.3,467.01443 c -0.4,0 -0.7,-0.3 -0.7,-0.7 0,-0.2 0.1,-0.3 0.2,-0.5 l 59.5,-61.7 c 0.3,-0.3 0.7,-0.3 0.9,0 0.3,0.3 0.3,0.7 0,0.9 0,0 0,0 0,0 l -59.5,61.7 c 0,0.2 -0.2,0.3 -0.4,0.3 z"
   id="path663" />
<path
   class="st11"
   d="m 180.1,474.91443 c -0.4,0 -0.7,-0.3 -0.7,-0.7 0,-0.4 0.3,-0.7 0.7,-0.7 l 55,-0.2 v 0 c 0.4,0 0.7,0.3 0.7,0.7 0,0.4 -0.3,0.7 -0.7,0.7 z"
   id="path665" />
<path
   class="st11"
   d="m 314.3,380.41443 c -0.3,0 -0.6,-0.2 -0.6,-0.5 l -3.1,-14.4 c -0.1,-0.4 0.2,-0.7 0.5,-0.8 0,0 0.1,0 0.1,0 h 10.5 v -7.1 c 0,-0.4 0.3,-0.7 0.7,-0.7 0.4,0 0.7,0.3 0.7,0.7 v 7.7 c 0,0.4 -0.3,0.7 -0.7,0.7 h -10.3 l 2.9,13.6 c 0.1,0.4 -0.1,0.7 -0.5,0.8 -0.1,0 -0.1,0 -0.2,0 z"
   id="path667" />
<path
   class="st11"
   d="m 247,491.91443 c -7.3,0 -13.2,-5.9 -13.2,-13.2 0,-7.3 5.9,-13.2 13.2,-13.2 7.3,0 13.2,5.9 13.2,13.2 0,7.3 -5.9,13.2 -13.2,13.2 z m 0,-25.1 c -6.5,0 -11.9,5.3 -11.9,11.9 0,6.6 5.3,11.9 11.9,11.9 6.6,0 11.9,-5.3 11.9,-11.9 v 0 c 0,-6.5 -5.4,-11.8 -11.9,-11.9 z"
   id="path669" />
<path
   class="st11"
   d="m 259.7,482.01443 h -10.5 c -2,0 -3.6,-1.6 -3.6,-3.6 0,-2 1.6,-3.6 3.6,-3.6 h 10.5 c 2,0 3.6,1.6 3.6,3.6 0,2 -1.6,3.6 -3.6,3.6 z"
   id="path671" />
<path
   class="st9"
   d="m 252.9,291.91443 c -1.1,0.1 -2.2,0.7 -2.9,1.6 l -4.9,5.9 -1.3,1.6 c -1.5,1.8 -1.2,4.5 0.6,6 l 22.6,18.5 40.1,32.8 c 1.7,1.4 4.3,1.3 5.8,-0.4 0.1,-0.1 0.1,-0.2 0.2,-0.2 l 3.7,-4.5 2.4,-3 c 0.2,-0.2 0.4,-0.5 0.5,-0.8 0.4,-0.7 0.5,-1.5 0.4,-2.4 -0.1,-1.1 -0.7,-2.2 -1.6,-2.9 l -4.8,-3.9 -35.3,-29 -22.5,-18.5 c -0.7,-0.6 -1.9,-0.9 -3,-0.8 z"
   id="path673" />
<circle
   class="st10"
   cx="238.49998"
   cy="232.31444"
   r="35.299999"
   id="circle675" />
<path
   class="st11"
   d="m 268.3,247.91443 v -1.3 c 2.5,-0.1 4.6,-0.2 6.2,-1.4 0.9,-0.7 1.5,-1.8 1.6,-3 0.1,-0.7 -0.2,-1.4 -0.8,-1.9 -1.1,-0.9 -2.8,-0.6 -4.1,0 l -1.1,0.5 2.1,-15.3 1.3,0.2 -1.8,13 c 1.7,-0.5 3.3,-0.3 4.4,0.6 0.8,0.7 1.3,1.8 1.2,3 -0.1,1.6 -0.8,3 -2.1,4 -2.1,1.5 -4.8,1.5 -6.9,1.6 z"
   id="path677" />
<rect
   x="257.5"
   y="226.81444"
   class="st11"
   width="7.0999999"
   height="1.3"
   id="rect679" />
<path
   class="st10"
   d="m 277.3,308.81443 -15.7,-15.9 c -4.7,-4.8 -12.4,-4.9 -17.2,-0.1 -4.8,4.7 -4.9,12.4 -0.1,17.2 l 15.7,15.9 c 1.4,1.4 3.7,1.7 5.4,0.6 0.2,-0.2 0.5,-0.3 0.7,-0.5 l 11.3,-11.1 c 0.4,-0.4 0.7,-0.9 0.9,-1.4 0.6,-1.6 0.2,-3.5 -1,-4.7 z"
   id="path681" />
<path
   class="st10"
   d="m 259.4,407.11443 h -9.7 c -2.4,0 -4.3,1.9 -4.3,4.3 v 60.6 c 0,2.4 1.9,4.3 4.3,4.3 h 9.7 c 2.4,0 4.3,-1.9 4.3,-4.3 0,0 0,0 0,0 v -60.6 c 0,-2.4 -1.9,-4.3 -4.3,-4.3 0,0 0,0 0,0 z"
   id="path683" />
<path
   class="st9"
   d="m 244.7,427.91443 c -3.1,0 -5.8,-1.9 -6.3,-4.7 l -9.9,-57.3 c -0.3,-1.6 0.2,-3.2 1.3,-4.4 1.1,-1.3 2.7,-2.2 4.4,-2.5 l 14.2,-2.4 c 3.6,-0.6 7,1.4 7.6,4.6 l 9.9,57.3 c 0.3,1.6 -0.2,3.2 -1.2,4.4 -1.1,1.3 -2.7,2.2 -4.4,2.5 l -14.2,2.4 c -0.5,0.1 -0.9,0.1 -1.4,0.1 z"
   id="path685" />
<path
   class="st10"
   d="m 259.2,284.81443 c -1.7,-1.9 -3.6,-3.6 -5.8,-4.9 -9.5,-5.8 -21.4,-5.7 -30.9,0.1 -1.8,1.2 -3.5,2.6 -5,4.1 -3.9,4 -6.1,9.4 -6.1,15 v 63.4 c 0,0.2 0,0.4 0.1,0.6 0.3,2 2.2,3.5 4.6,3.5 h 44.1 c 2.5,0 4.6,-1.8 4.6,-4.1 v -63.3 c -0.1,-5.3 -2,-10.4 -5.6,-14.4 z"
   id="path687" />
<path
   class="st11"
   d="m 246.4,235.11443 c -4.7,1.6 -9.9,-1.6 -10.2,-6.7 -0.2,-2.4 0.7,-4.7 2.5,-6.3 1.6,-1.3 3.5,-2.2 5.5,-2.5 4.4,-0.8 9,-0.1 13.5,-0.8 4.5,-0.7 8.5,-3 10.4,-7.2 1.9,-4.2 2,-9 0.1,-13.2 -2,-4.7 -6.1,-8.2 -10.5,-10.6 -8.5,-4.6 -18.7,-5.5 -28.1,-3.5 -9.4,2 -17.9,7.1 -24.1,14.4 -0.7,0.9 -1.5,1.8 -2.1,2.8 -0.3,0.5 -0.1,1.1 0.4,1.4 0.1,0.1 0.3,0.1 0.5,0.1 l 5.8,-0.7 -0.9,-1.5 -6.3,11.3 c -0.4,0.7 0.3,1.8 1.1,1.5 l 9.2,-3.5 -1,-1.7 -9.1,11.1 c -0.8,1 0.6,2.4 1.4,1.4 l 9.1,-11.1 c 0.6,-0.7 0.1,-2 -1,-1.7 l -9.2,3.5 1.1,1.5 6.3,-11.3 c 0.3,-0.6 -0.1,-1.6 -0.9,-1.5 l -5.8,0.7 0.9,1.5 c 5.4,-7.7 13.7,-13.2 22.7,-15.7 9.1,-2.5 19.2,-2.1 27.7,2.1 4.5,2.2 8.6,5.5 10.8,10.1 1.9,4.1 1.7,8.8 -0.5,12.7 -5,8.5 -16.5,4.1 -24.2,6.6 -4.4,1.4 -7.6,5.3 -7.4,10 0.3,5 4.3,9 9.3,9.2 1.2,0.1 2.3,-0.1 3.4,-0.5 1.3,-0.4 0.8,-2.3 -0.4,-1.9 z"
   id="path689" />
<path
   class="st11"
   d="m 170.6,530.51443 c -33.1,0 -59.9,-26.8 -59.9,-59.9 0,-33.1 26.8,-59.9 59.9,-59.9 33.1,0 59.9,26.8 59.9,59.9 0,33.1 -26.8,59.9 -59.9,59.9 z m 0,-118.5 c -32.4,0 -58.6,26.2 -58.6,58.6 0,32.4 26.2,58.6 58.6,58.6 32.4,0 58.6,-26.2 58.6,-58.6 v 0 c 0,-32.4 -26.2,-58.6 -58.6,-58.6 z"
   id="path691" />
<path
   class="st11"
   d="m 356.3,530.51443 c -33.1,0 -59.9,-26.8 -59.9,-59.9 0,-33.1 26.8,-59.9 59.9,-59.9 33.1,0 59.9,26.8 59.9,59.9 0,33.1 -26.8,59.9 -59.9,59.9 z m 0,-118.5 c -32.4,0 -58.6,26.2 -58.6,58.6 0,32.4 26.2,58.6 58.6,58.6 32.4,0 58.6,-26.2 58.6,-58.6 v 0 c 0,-32.4 -26.2,-58.6 -58.6,-58.6 z"
   id="path693" />
<path
   class="st12"
   d="m 720,120.61443 c -10.2,15.4 -7.6,36.7 -2.5,53.7 1.7,5.7 3.7,11.6 2.5,17.9 -1.4,7.7 -7.2,13.6 -13.2,16.9 -10.8,6 -23.4,5.5 -32.7,-1.3 -8.1,-5.9 -13.5,-15.9 -21.8,-21.5 -13.8,-9.3 -32.1,-4.3 -48,3.7 -11.2,5.7 -23.5,12.9 -34.2,8.4 -7.5,-3.2 -12.3,-11.8 -14.7,-21.1 -1.2,-4.5 -1.9,-9.4 -4.4,-12.8 -1.5,-2.1 -3.5,-3.5 -5.5,-4.6 -18.7,-10.6 -43.5,-2.8 -61.6,-14.7 -12.2,-8 -19.5,-24.1 -22.2,-41.2 -2.7,-17.099999 -1.4,-35.299999 0.4,-53.199999 1.3,-12.7 3.1,-26.3 10.2,-36.5 7.5,-10.8 19.7,-15.4 30.4,-14.09999996 10.7,1.29999996 20.2,7.69999996 28.4,15.39999996 10.3,9.7 19.6,21.9 32.7,25.2 8.9,2.3 18.5,0.1 27.8,-1 15.6,-1.9 31.1,-0.8 46.5,0.4 14.7,1.2 29.5,2.6 43.3,7.6 9.8,3.6 17.4,10.7 26.6,15.4 6,3.1 12.6,3.6 18.2,7.7 6.9,5 13,14 10.6,25.2 -2.1,10.499999 -11.4,16.299999 -16.8,24.499999 z"
   id="path695" />
<rect
   x="678.20001"
   y="63.214432"
   class="st13"
   width="10.1"
   height="15.3"
   id="rect697" />
<rect
   x="679.10004"
   y="64.714432"
   class="st13"
   width="8.1999998"
   height="12.3"
   id="rect699" />
<rect
   x="657.60004"
   y="52.614426"
   class="st13"
   width="15.5"
   height="15.3"
   id="rect701" />
<rect
   x="659.10004"
   y="54.114426"
   class="st13"
   width="12.5"
   height="12.3"
   id="rect703" />
<rect
   x="476.20001"
   y="29.81443"
   class="st13"
   width="47.5"
   height="1.3"
   id="rect705" />
<rect
   x="476.20001"
   y="36.014435"
   class="st13"
   width="47.5"
   height="1.3"
   id="rect707" />
<rect
   x="556.29999"
   y="111.81444"
   class="st14"
   width="4.9000001"
   height="54.200001"
   id="rect709" />
<path
   class="st15"
   d="M 702.9,117.51443 V 67.514431 c 0,-2.9 2.4,-5.3 5.3,-5.3 v 0 c 2.9,0 5.2,2.4 5.2,5.3 v 60.499999 c 0,2.9 -2.4,5.3 -5.3,5.3 v 0 h -32.6 c -2.9,0 -5.3,-2.4 -5.3,-5.3 v 0 0 c 0,-2.9 2.4,-5.3 5.3,-5.3 v 0 h 22.1 c 3,0 5.3,-2.3 5.3,-5.2 z"
   id="path711" />
<path
   class="st16"
   d="M 702.9,117.51443 V 67.514431 c 0,-2.9 2.4,-5.3 5.3,-5.3 v 0 c 2.9,0 5.2,2.4 5.2,5.3 v 60.499999 c 0,2.9 -2.4,5.3 -5.3,5.3 v 0 h -32.6 c -2.9,0 -5.3,-2.4 -5.3,-5.3 v 0 0 c 0,-2.9 2.4,-5.3 5.3,-5.3 v 0 h 22.1 c 3,0 5.3,-2.3 5.3,-5.2 z"
   id="path713" />
<path
   class="st14"
   d="m 670.3,127.71443 c 0.1,-2.8 2.5,-5 5.3,-5 h 22.1 c 2.9,0 5.3,-2.4 5.3,-5.3 v 0 -49.999999 c 0,-2.8 2.2,-5.1 5,-5.3 v 65.499999 h -37.7 z"
   id="path715" />
<path
   class="st15"
   d="M 507.8,119.21443 V 69.214431 c 0,-2.9 -2.3,-5.3 -5.2,-5.3 v 0 c -2.9,0 -5.3,2.4 -5.3,5.3 v 60.499999 c 0,2.9 2.3,5.3 5.2,5.3 0,0 0,0 0,0 h 32.6 c 2.9,0 5.3,-2.4 5.3,-5.3 v 0 c 0,-2.9 -2.4,-5.3 -5.3,-5.3 H 513 c -2.8,0 -5.2,-2.3 -5.2,-5.2 0,0 0,0 0,0 z"
   id="path717" />
<path
   class="st16"
   d="M 507.8,119.21443 V 69.214431 c 0,-2.9 -2.3,-5.3 -5.2,-5.3 v 0 c -2.9,0 -5.3,2.4 -5.3,5.3 v 60.499999 c 0,2.9 2.3,5.3 5.2,5.3 0,0 0,0 0,0 h 32.6 c 2.9,0 5.3,-2.4 5.3,-5.3 v 0 c 0,-2.9 -2.4,-5.3 -5.3,-5.3 H 513 c -2.8,0 -5.2,-2.3 -5.2,-5.2 0,0 0,0 0,0 z"
   id="path719" />
<path
   class="st14"
   d="m 540.4,129.41443 c -0.1,-2.8 -2.5,-5 -5.3,-5 H 513 c -2.9,0 -5.3,-2.4 -5.3,-5.3 0,0 0,0 0,0 V 69.114431 c 0,-2.8 -2.2,-5.1 -5,-5.3 v 65.499999 h 37.7 z"
   id="path721" />
<rect
   x="652.29999"
   y="111.81444"
   class="st14"
   width="4.9000001"
   height="55.5"
   id="rect723" />
<rect
   x="556.29999"
   y="111.81444"
   class="st17"
   width="4.9000001"
   height="4"
   id="rect725" />
<rect
   x="652.29999"
   y="111.81444"
   class="st17"
   width="4.9000001"
   height="4"
   id="rect727" />
<path
   class="st17"
   d="m 573.6,78.814431 c -0.1,0.9 -0.2,1.7 -0.3,2.6 h -0.7 v -2.6 z"
   id="path729" />
<path
   class="st16"
   d="m 593.5,105.71443 c 0,0.9 -0.6,1.6 -1.4,1.6 h -14.8 v -1.5 h 12.3 c 0.5,0 0.9,-0.6 0.6,-1.2 L 579,81.914431 c -0.2,-0.3 -0.5,-0.5 -0.9,-0.6 h -5.5 v -2.6 h 7 c 0.3,0 0.5,0.2 0.6,0.4 L 593,103.81443 c 0.4,0.7 0.5,1.3 0.5,1.9 z"
   id="path731" />
<path
   class="st16"
   d="m 566.3,101.61443 -0.2,0.3 -1.9,-1.3 5.9,-45.199999 h 1.5 c 0,0 0.1,0.2 0.2,0.6 1,4.1 6,26.2 -5.5,45.599999 z"
   id="path733" />
<path
   class="st17"
   d="m 571.8,56.114431 -5.4,45.499999 -0.2,0.3 -1.9,-1.3 5.9,-45.199999 h 1.5 c -0.1,0.1 0,0.4 0.1,0.7 z"
   id="path735" />
<rect
   x="-33.959396"
   y="570.62665"
   transform="rotate(-83.171335)"
   class="st14"
   width="46.799709"
   height="3.5999777"
   id="rect737"
   style="stroke-width:0.999994" />
<path
   class="st18"
   d="m 550.3,105.81443 c 0,0.2 -0.2,0.4 -0.4,0.4 h -0.6 c -0.2,0 -0.4,-0.2 -0.4,-0.4 0,0 0,0 0,0 0,-0.2 0.2,-0.4 0.4,-0.4 h 0.6 c 0.2,-0.1 0.3,0.1 0.4,0.4 0,-0.1 0,-0.1 0,0 z"
   id="path739" />
<path
   class="st18"
   d="m 552.2,105.81443 c 0,0.2 -0.2,0.4 -0.4,0.4 h -0.6 c -0.2,0 -0.4,-0.2 -0.4,-0.4 0,0 0,-0.1 0,-0.1 0,-0.1 0.1,-0.1 0.1,-0.2 0.1,-0.1 0.2,-0.1 0.3,-0.1 h 0.6 c 0.2,0 0.3,0.1 0.4,0.2 0,0 0,0.1 0,0.2 z"
   id="path741" />
<path
   class="st18"
   d="m 553.9,105.81443 c 0,0.2 -0.2,0.4 -0.4,0.4 h -0.6 c -0.2,0 -0.4,-0.2 -0.4,-0.4 0,-0.1 0,-0.1 0,-0.2 0.1,-0.1 0.2,-0.2 0.4,-0.2 h 0.6 c 0.2,-0.1 0.4,0.1 0.4,0.4 0,0 0,0 0,0 z"
   id="path743" />
<path
   class="st18"
   d="m 555.8,105.81443 c 0,0.2 -0.2,0.4 -0.4,0.4 h -0.6 c -0.2,0 -0.4,-0.2 -0.4,-0.4 0,-0.1 0,-0.2 0.1,-0.2 v -0.1 c 0.1,-0.1 0.2,-0.1 0.3,-0.1 h 0.6 c 0.1,0 0.2,0.1 0.3,0.1 0,0.1 0.1,0.2 0.1,0.3 z"
   id="path745" />
<path
   class="st17"
   d="m 550.3,105.71443 c 0,0 0,0.1 0,0.1 0,0.2 -0.2,0.4 -0.4,0.4 h -0.6 c -0.2,0 -0.4,-0.2 -0.4,-0.4 0,0 0,0 0,0 z"
   id="path747" />
<path
   class="st17"
   d="m 552.2,105.61443 c 0,0.1 0,0.1 0,0.2 0,0.2 -0.2,0.4 -0.4,0.4 h -0.6 c -0.2,0 -0.4,-0.2 -0.4,-0.4 0,0 0,-0.1 0,-0.1 z"
   id="path749" />
<path
   class="st17"
   d="m 553.8,105.51443 c 0,0.1 0.1,0.1 0.1,0.2 0,0.2 -0.2,0.4 -0.4,0.4 h -0.6 c -0.2,0 -0.4,-0.2 -0.4,-0.4 0,-0.1 0,-0.1 0,-0.2 z"
   id="path751" />
<path
   class="st17"
   d="m 555.8,105.81443 c 0,0.2 -0.2,0.4 -0.4,0.4 h -0.6 c -0.2,0 -0.4,-0.2 -0.4,-0.4 0,-0.1 0,-0.2 0.1,-0.2 h 1.3 c -0.1,0 0,0.1 0,0.2 z"
   id="path753" />
<path
   class="st14"
   d="m 559.6,107.41443 h -12.2 v -0.6 c 0,-0.5 0.4,-0.9 0.9,-1 l 9.8,-0.3 c 0.8,0 1.5,0.6 1.5,1.4 0,0 0,0 0,0 z"
   id="path755" />
<path
   class="st16"
   d="m 620,105.71443 c 0,0.9 0.6,1.6 1.4,1.6 h 14.8 v -1.5 h -12.3 c -0.5,0 -0.9,-0.6 -0.6,-1.2 l 11.2,-22.699999 c 0.2,-0.3 0.5,-0.5 0.9,-0.6 h 5.5 v -2.6 h -7 c -0.3,0 -0.5,0.2 -0.6,0.4 l -12.8,24.699999 c -0.4,0.7 -0.5,1.3 -0.5,1.9 z"
   id="path757" />
<path
   class="st16"
   d="m 647.2,101.61443 0.2,0.3 1.9,-1.3 -5.9,-45.199999 h -1.5 c 0,0 -0.1,0.2 -0.2,0.6 -1,4.1 -6,26.2 5.5,45.599999 z"
   id="path759" />
<path
   class="st17"
   d="m 641.7,56.114431 5.4,45.499999 0.2,0.3 1.9,-1.3 -5.9,-45.199999 h -1.5 c 0.1,0.1 0,0.4 -0.1,0.7 z"
   id="path761" />
<rect
   x="630.66327"
   y="131.44313"
   transform="rotate(-6.8286652)"
   class="st14"
   width="3.5999777"
   height="46.799709"
   id="rect763"
   style="stroke-width:0.999994" />
<path
   class="st18"
   d="m 663.2,105.81443 c 0,0.2 0.2,0.4 0.4,0.4 h 0.6 c 0.2,0 0.4,-0.2 0.4,-0.4 v 0 c 0,0 0,0 0,0 0,-0.2 -0.2,-0.4 -0.4,-0.4 h -0.6 c -0.2,-0.1 -0.3,0.1 -0.4,0.4 0,-0.1 0,-0.1 0,0 z"
   id="path765" />
<path
   class="st18"
   d="m 661.3,105.81443 c 0,0.2 0.2,0.4 0.4,0.4 h 0.6 c 0.2,0 0.4,-0.2 0.4,-0.4 v 0 c 0,0 0,-0.1 0,-0.1 0,-0.1 -0.1,-0.1 -0.1,-0.2 -0.1,-0.1 -0.2,-0.1 -0.3,-0.1 h -0.6 c -0.2,0 -0.3,0.1 -0.4,0.2 0,0 0,0.1 0,0.2 z"
   id="path767" />
<path
   class="st18"
   d="m 659.6,105.81443 c 0,0.2 0.2,0.4 0.4,0.4 h 0.6 c 0.2,0 0.4,-0.2 0.4,-0.4 v 0 c 0,-0.1 0,-0.1 0,-0.2 -0.1,-0.1 -0.2,-0.2 -0.4,-0.2 H 660 c -0.2,-0.1 -0.4,0.1 -0.4,0.4 0,0 0,0 0,0 z"
   id="path769" />
<path
   class="st18"
   d="m 657.7,105.81443 c 0,0.2 0.2,0.4 0.4,0.4 h 0.6 c 0.2,0 0.4,-0.2 0.4,-0.4 0,-0.1 0,-0.2 -0.1,-0.2 v -0.1 c -0.1,-0.1 -0.2,-0.1 -0.3,-0.1 h -0.6 c -0.1,0 -0.2,0.1 -0.3,0.1 -0.1,0.1 -0.1,0.2 -0.1,0.3 z"
   id="path771" />
<path
   class="st17"
   d="m 663.2,105.71443 c 0,0 0,0.1 0,0.1 0,0.2 0.2,0.4 0.4,0.4 h 0.6 c 0.2,0 0.4,-0.2 0.4,-0.4 v 0 c 0,0 0,0 0,0 z"
   id="path773" />
<path
   class="st17"
   d="m 661.3,105.61443 c 0,0.1 0,0.1 0,0.2 0,0.2 0.2,0.4 0.4,0.4 h 0.6 c 0.2,0 0.4,-0.2 0.4,-0.4 v 0 c 0,0 0,-0.1 0,-0.1 z"
   id="path775" />
<path
   class="st17"
   d="m 659.7,105.51443 c 0,0.1 -0.1,0.1 -0.1,0.2 0,0.2 0.2,0.4 0.4,0.4 h 0.6 c 0.2,0 0.4,-0.2 0.4,-0.4 v 0 c 0,-0.1 0,-0.1 0,-0.2 z"
   id="path777" />
<path
   class="st17"
   d="m 657.7,105.81443 c 0,0.2 0.2,0.4 0.4,0.4 h 0.6 c 0.2,0 0.4,-0.2 0.4,-0.4 0,-0.1 0,-0.2 -0.1,-0.2 h -1.3 c 0,0 0,0.1 0,0.2 z"
   id="path779" />
<path
   class="st14"
   d="m 653.9,107.41443 h 12.2 v -0.6 c 0,-0.5 -0.4,-0.9 -0.9,-1 l -9.8,-0.3 c -0.8,0 -1.5,0.6 -1.5,1.4 0,0 0,0 0,0 z"
   id="path781" />
<linearGradient
   id="SVGID_1_"
   gradientUnits="userSpaceOnUse"
   x1="1239.9226"
   y1="527.94928"
   x2="1239.9226"
   y2="655.3382"
   gradientTransform="matrix(1,0.09,0.09,-1,-614.58,587.76443)">
	<stop
   offset="0"
   style="stop-color:#808080;stop-opacity:0.25"
   id="stop783" />
	<stop
   offset="0.54"
   style="stop-color:#808080;stop-opacity:0.12"
   id="stop785" />
	<stop
   offset="1"
   style="stop-color:#808080;stop-opacity:0.1"
   id="stop787" />
</linearGradient>
<path
   class="st19"
   d="m 705.1,114.21443 c 5.7,-9.7 3.6,-29.199999 3.9,-29.599999 0.2,-0.3 -0.6,-9.5 -5.8,-11.8 -0.9,-1.9 -1.9,-4 -1.9,-4 -0.1,0.1 -0.2,0.2 -0.3,0.2 0,-0.1 -0.1,-0.2 -0.1,-0.3 -0.1,-0.2 -0.1,-0.4 -0.2,-0.6 0.1,0 0.3,0.1 0.4,0.1 0.4,0.1 0.8,0.1 1.2,-0.1 0.1,-0.1 0.2,-0.2 0.3,-0.3 0.4,-0.3 0.6,-0.8 0.8,-1.2 l 1.5,-3.7 c 0.7,-1.7 1.4,-3.3 1.7,-5.1 0.5,-2.6 0.3,-5.4 -0.6,-7.9 -0.4,-1 -0.9,-1.9 -1.7,-2.5 -1.7,-1.2 -4.1,-0.4 -6,-1 -0.6,-0.2 -1.2,-0.6 -1.9,-0.8 -1.4,-0.5 -2.9,-0.2 -4.3,0.4 -1.4,0.6 -2.4,1.6 -3.6,2.5 -0.6,0.4 -1.5,0.9 -2.2,1.5 -0.7,0.5 -1.2,1.1 -1.1,1.9 0.1,0.9 1.1,1.5 2,1.7 0.2,0 0.3,0.1 0.5,0.1 -3.5,3.5 -3.4,9.1 0.1,12.6 1,1 2.3,1.8 3.7,2.2 0.5,0.9 0.9,1.8 1.2,2.7 0,0.1 0.1,0.3 0.1,0.4 -1.5,0.4 -2.7,0.8 -2.9,1 -0.7,0.6 0.8,5.7 0.8,5.7 -0.4,0.5 -0.8,1 -1.2,1.6 -3,4.5 -4.8,9.6 -5.5,15 -0.2,2 -0.6,4 -1,5.899999 l -17.7,-3.599999 v 0.4 l -0.4,-0.1 v 0 l -1.3,-0.3 -0.1,0.3 -0.2,-0.1 c -3.3,-1.5 -8.9,-3.5 -12.6,-1.5 -4,2.1 4.6,4.999999 10.1,6.499999 -1.8,0.1 -3.6,0.5 -4.9,1.6 -4,3 7.3,4.5 12.6,5.1 h 0.2 v 0.1 l 1.8,0.2 h 0.4 v 0.7 c 0,0 2.6,0.4 6.2,1 -4,1 -9,1.7 -12.5,2.1 -3.7,0.4 -6.8,3 -7.8,6.5 -0.3,1 -0.3,2.1 -0.1,3.1 1,3.6 -0.2,30 -0.5,35.7 l -6.5,3.8 c 0,0 -10.1,1.2 -3.4,3.6 0.6,0.2 1.2,0.4 1.9,0.5 -0.9,0.6 -0.8,1.3 1.8,2.2 6.8,2.4 22.5,-0.1 22.5,-0.1 0,0 -0.3,-2.8 -0.9,-5.1 h 0.2 c 0,0 -1.6,-6 0.8,-9.1 2.5,-3 -0.4,-26.2 -0.4,-26.2 0,0 4.3,-1.8 17.2,-1.9 10.4,2.7 15.5,-6.9 15.4,-11.8 0.3,0 0.3,-0.1 0.3,-0.2 z"
   id="path790"
   style="fill:url(#SVGID_1_)" />
<path
   class="st20"
   d="m 666.7,99.214431 -1.1,4.499999 c 0,0 -1,-0.2 -2.5,-0.6 -5,-1.3 -15.6,-4.399999 -11.4,-6.699999 3.7,-2 9.1,-0.1 12.3,1.4 1.2,0.6 2.1,1 2.4,1.3 0.2,0 0.3,0.1 0.3,0.1 z"
   id="path792" />
<path
   class="st17"
   d="m 666.4,100.41443 -0.8,3.2 c 0,0 -1,-0.2 -2.5,-0.6 l 0.9,-5.299999 c 1.2,0.6 2.1,1 2.4,1.3 z"
   id="path794" />
<polygon
   class="st21"
   points="1215.1,176.3 1217.5,176.9 1217.2,182.7 1214.1,182 "
   id="polygon796"
   transform="translate(-550.8,-78.785569)" />
<polygon
   class="st17"
   points="1216.4,176.7 1217.5,176.9 1217.2,182.7 1215.9,182.4 "
   id="polygon798"
   transform="translate(-550.8,-78.785569)" />
<path
   class="st22"
   d="m 696.1,80.614431 c 0,0 -5.9,-3.4 -8.5,6.4 -2.6,9.8 -2.9,14.299999 -2.9,14.299999 l -18.6,-3.699999 -0.6,6.799999 c 0,0 19.9,6.4 22.4,6 2.5,-0.5 10.6,-14.099999 10.6,-14.099999 0,0 7.4,-10.7 -2.4,-15.7 z"
   id="path800" />
<g
   class="st23"
   id="g812"
   transform="translate(-550.8,-78.785569)">
	<path
   d="m 1217.5,178 -1.1,4.5 c 0,0 -1,-0.2 -2.5,-0.6 -5,-1.3 -15.6,-4.4 -11.4,-6.7 3.7,-2 9.1,-0.1 12.3,1.4 1.2,0.6 2.1,1 2.4,1.3 0.2,0 0.3,0.1 0.3,0.1 z"
   id="path802" />
	<path
   class="st17"
   d="m 1217.2,179.2 -0.8,3.2 c 0,0 -1,-0.2 -2.5,-0.6 l 0.9,-5.3 c 1.2,0.6 2.1,1 2.4,1.3 z"
   id="path804" />
	<polygon
   points="1215.1,176.3 1217.5,176.9 1217.2,182.7 1214.1,182 "
   id="polygon806" />
	<polygon
   class="st17"
   points="1216.4,176.7 1217.5,176.9 1217.2,182.7 1215.9,182.4 "
   id="polygon808" />
	<path
   d="m 1246.9,159.7 c 0,0 -5.9,-3.4 -8.5,6.4 -2.6,9.8 -2.9,14.3 -2.9,14.3 l -18.6,-3.7 -0.6,6.8 c 0,0 19.9,6.4 22.4,6 2.5,-0.5 10.6,-14.1 10.6,-14.1 0,0 7.4,-10.7 -2.4,-15.7 z"
   id="path810" />
</g>
<path
   class="st24"
   d="m 658.5,156.41443 -7.6,4.4 c 0,0 -9.9,1.2 -3.3,3.5 6.6,2.3 21.8,-0.1 21.8,-0.1 0,0 -0.8,-6.9 -2,-7.8 -1.2,-1 -8.9,0 -8.9,0 z"
   id="path814" />
<path
   class="st25"
   d="m 688.2,107.21443 c 0,0 -3.8,2 -10.5,3.7 -3.9,1 -8.9,1.7 -12.3,2.1 -3.6,0.4 -6.6,2.9 -7.6,6.3 -0.3,1 -0.3,2.1 -0.1,3.1 1.1,3.9 -0.6,35.8 -0.6,35.8 l 11.6,1.1 c 0,0 -1.6,-5.9 0.8,-8.8 2.4,-3 -0.4,-25.5 -0.4,-25.5 0,0 4.2,-1.7 16.7,-1.8 11.6,3 16.4,-9.7 14.6,-13.3 -1.8,-3.6 -12.2,-2.7 -12.2,-2.7 z"
   id="path816" />
<g
   class="st23"
   id="g822"
   transform="translate(-550.8,-78.785569)">
	<path
   d="m 1209.3,235.2 -7.6,4.4 c 0,0 -9.9,1.2 -3.3,3.5 6.6,2.3 21.8,-0.1 21.8,-0.1 0,0 -0.8,-6.9 -2,-7.8 -1.2,-1 -8.9,0 -8.9,0 z"
   id="path818" />
	<path
   d="m 1239,186 c 0,0 -3.8,2 -10.5,3.7 -3.9,1 -8.9,1.7 -12.3,2.1 -3.6,0.4 -6.6,2.9 -7.6,6.3 -0.3,1 -0.3,2.1 -0.1,3.1 1.1,3.9 -0.6,35.8 -0.6,35.8 l 11.6,1.1 c 0,0 -1.6,-5.9 0.8,-8.8 2.4,-3 -0.4,-25.5 -0.4,-25.5 0,0 4.2,-1.7 16.7,-1.8 11.6,3 16.4,-9.7 14.6,-13.3 -1.8,-3.6 -12.2,-2.7 -12.2,-2.7 z"
   id="path820" />
</g>
<path
   class="st24"
   d="m 662.1,159.11443 -7.6,4.4 c 0,0 -9.9,1.2 -3.3,3.5 6.6,2.3 21.8,-0.1 21.8,-0.1 0,0 -0.8,-6.9 -2,-7.8 -1.2,-1 -8.9,0 -8.9,0 z"
   id="path824" />
<path
   class="st25"
   d="m 689.4,125.81443 c -12.5,0.1 -16.7,1.8 -16.7,1.8 0,0 2.8,22.5 0.4,25.5 -2.4,3 -0.8,8.8 -0.8,8.8 l -11.6,-1.1 c 0,0 0,-0.4 0.1,-1 0.3,-5.5 1.5,-31.2 0.5,-34.7 -0.3,-1 -0.2,-2.1 0.1,-3.1 1,-3.5 4,-6 7.5,-6.4 3.4,-0.4 8.3,-1.1 12.3,-2.1 h 0.2 c 6.6,-1.7 10.3,-3.6 10.3,-3.6 0,0 10.5,-0.9 12.3,2.6 0.3,0.6 0.4,1.2 0.4,1.8 0,4.8 -4.9,14.1 -15,11.5 z"
   id="path826" />
<path
   class="st20"
   d="m 672,104.71443 -0.4,4.6 c 0,0 -1,-0.1 -2.5,-0.2 -5.2,-0.5 -16.1,-2 -12.2,-4.9 3.3,-2.5 9,-1.4 12.3,-0.4 1.2,0.4 2.2,0.7 2.6,0.9 0.1,0 0.2,0 0.2,0 z"
   id="path828" />
<path
   class="st20"
   d="m 702.7,74.814431 c 0,0 -1.5,1.2 -3.4,2.5 -2.1,0.5 -4.5,0.9 -6.2,1.1 0.6,-2 0.2,-4.2 -0.5,-6.2 -0.8,-2 -1.8,-4 -3.1,-5.7 l 10.5,-3.3 c -0.8,2.1 -0.5,4.5 0.2,6.5 0.6,1.9 1.5,3.5 2.5,5.1 z"
   id="path830" />
<path
   class="st17"
   d="m 671.9,106.01443 -0.3,3.3 c 0,0 -1,-0.1 -2.5,-0.2 l 0.1,-5.3 c 1.2,0.4 2.2,0.7 2.6,0.9 z"
   id="path832" />
<polygon
   class="st21"
   points="1220.1,182.3 1222.7,182.5 1223.2,188.3 1220,188 "
   id="polygon834"
   transform="translate(-550.8,-78.785569)" />
<path
   class="st17"
   d="m 702.7,74.814431 c 0,0 -1.5,1.2 -3.4,2.5 -2.1,0.5 -4.5,0.9 -6.2,1.1 0.6,-2 0.2,-4.2 -0.5,-6.2 2.6,-0.7 6.2,-1.7 7.6,-2.5 0.6,1.9 1.5,3.5 2.5,5.1 z"
   id="path836" />
<path
   class="st21"
   d="m 700.6,69.914431 c 0,0 1.8,4 2.9,5.8 1.1,1.8 -12.8,3.5 -12.8,3.5 0,0 -1.4,-5 -0.8,-5.6 0.7,-0.6 9.6,-2.5 10.7,-3.7 z"
   id="path838" />
<path
   class="st17"
   d="m 704.4,114.31443 c -0.6,1 -1.3,2 -2.2,2.8 -6.2,5.8 -16.2,-0.2 -20.8,-3.6 6.6,-1.7 10.3,-3.6 10.3,-3.6 0,0 10.5,-0.9 12.3,2.6 0.2,0.6 0.4,1.2 0.4,1.8 z"
   id="path840" />
<path
   class="st10"
   d="m 702.2,116.71443 c -7,6.6 -19.1,-2.2 -22.3,-4.7 -0.5,-0.4 -0.8,-0.7 -0.8,-0.7 1.3,-1.2 2.4,-3.8 3.3,-6.9 0.8,-3 1.4,-5.999999 1.8,-9.099999 0.6,-5.2 2.4,-10.2 5.3,-14.6 0.4,-0.6 0.7,-1.1 1.1,-1.6 2.6,-3.4 7.1,-5.5 7.1,-5.5 9.4,-2.7 10.6,11.2 10.4,11.6 -0.2,0.4 2.3,23.799999 -5.9,31.499999 z"
   id="path842" />
<path
   class="st9"
   d="m 703.1,97.714431 c 0,0 -6,14.699999 -8.4,15.499999 -1.4,0.5 -8.7,-0.4 -14.8,-1.3 -0.5,-0.4 -0.8,-0.7 -0.8,-0.7 1.3,-1.2 2.4,-3.8 3.3,-6.9 l 7.8,0.4 c 0,0 -0.4,-4.5 0.7,-14.599999 1.1,-10.1 7.5,-7.6 7.5,-7.6 10.5,3.6 4.7,15.2 4.7,15.2 z"
   id="path844" />
<polygon
   class="st17"
   points="1221.5,182.4 1222.7,182.5 1223.2,188.3 1221.8,188.1 "
   id="polygon846"
   transform="translate(-550.8,-78.785569)" />
<path
   class="st10"
   d="m 698.2,82.014431 c 0,0 -6.3,-2.5 -7.5,7.6 -1.1,10.1 -0.7,14.599999 -0.7,14.599999 l -19,-0.9 0.4,6.8 c 0,0 20.7,3.4 23.1,2.6 2.4,-0.8 8.4,-15.499999 8.4,-15.499999 0,0 5.8,-11.7 -4.7,-15.2 z"
   id="path848" />
<path
   class="st17"
   d="m 698.7,67.114431 c -0.3,-1.5 1.3,-1.5 1.9,-2.9 l -10.5,3.3 c 0.7,1 1.4,2 1.9,3.1 0.5,0.2 1.1,0.3 1.7,0.3 2.5,0.2 3.2,-2.3 5,-3.8 z"
   id="path850" />
<circle
   transform="rotate(-84.720228)"
   class="st20"
   cx="2.8122387"
   cy="696.54657"
   id="ellipse852"
   r="8.7003736"
   style="stroke-width:1.00004" />
<path
   class="st17"
   d="m 685.4,53.514431 c 0.1,0.9 1.1,1.5 1.9,1.7 0.9,0.2 1.8,0.2 2.6,0.7 1.2,0.8 1.6,2.5 1.4,3.9 -0.1,0.8 -0.2,1.8 0.5,2.3 0.2,0.1 0.4,0.2 0.7,0.2 0.7,0.1 1.4,0.2 2.1,0.1 0.4,-0.1 0.8,-0.1 1.2,0 0.6,0.2 1,0.9 1.2,1.5 0.2,0.6 0.1,1.3 0.2,2 0.3,1.7 1.6,3.1 3.3,3.4 0.4,0.1 0.8,0.1 1.2,-0.1 0.5,-0.2 0.7,-0.8 0.9,-1.3 l 1.5,-3.6 c 0.7,-1.6 1.3,-3.2 1.7,-4.9 0.5,-2.6 0.3,-5.2 -0.6,-7.7 -0.4,-0.9 -0.8,-1.9 -1.7,-2.4 -1.7,-1.1 -4,-0.3 -5.8,-1 -0.6,-0.2 -1.2,-0.6 -1.8,-0.8 -1.3,-0.5 -2.9,-0.2 -4.1,0.4 -1.3,0.6 -2.3,1.5 -3.5,2.4 -1,0.9 -3.1,1.7 -2.9,3.2 z"
   id="path854" />
<path
   class="st26"
   d="m 685.6,53.314431 c 0.1,0.9 1.1,1.5 1.9,1.7 0.9,0.2 1.8,0.2 2.6,0.7 1.2,0.8 1.6,2.5 1.4,3.9 -0.1,0.8 -0.2,1.8 0.5,2.3 0.2,0.1 0.4,0.2 0.7,0.2 0.7,0.1 1.4,0.2 2.1,0.1 0.4,-0.1 0.8,-0.1 1.2,0 0.6,0.2 1,0.9 1.2,1.5 0.2,0.6 0.1,1.3 0.2,2 0.3,1.7 1.6,3.1 3.3,3.4 0.4,0.1 0.8,0.1 1.2,-0.1 0.5,-0.2 0.7,-0.8 0.9,-1.3 l 1.5,-3.6 c 0.7,-1.6 1.3,-3.2 1.7,-4.9 0.5,-2.6 0.3,-5.2 -0.6,-7.7 -0.4,-0.9 -0.8,-1.9 -1.7,-2.4 -1.7,-1.1 -4,-0.3 -5.8,-1 -0.6,-0.2 -1.2,-0.6 -1.8,-0.8 -1.3,-0.5 -2.9,-0.2 -4.1,0.4 -1.2,0.6 -2.3,1.5 -3.5,2.4 -1,0.9 -3.1,1.7 -2.9,3.2 z"
   id="path856" />
<path
   class="st9"
   d="m 692.7,87.514431 c 0,0 -3.3,12.799999 -6.6,13.999999 -3.3,1.2 -1.8,1.5 -1.8,1.5"
   id="path858" />
<rect
   x="689.29999"
   y="134.51443"
   class="st14"
   width="3.5999999"
   height="23.6"
   id="rect860" />
<rect
   x="689.29999"
   y="134.51443"
   class="st17"
   width="3.5999999"
   height="1.7"
   id="rect862" />
<path
   class="st14"
   d="m 682.1,134.41443 v 0.5 c 0,0.6 0.5,1.2 1.2,1.2 v 0 h 15.6 c 0.6,0 1.2,-0.5 1.2,-1.2 v 0 -0.5 c 0,-0.6 -0.5,-1.2 -1.2,-1.2 v 0 h -15.6 c -0.6,0 -1.2,0.6 -1.2,1.2 z"
   id="path864" />
<path
   class="st17"
   d="m 682.4,133.71443 h 17.4 c -0.2,-0.3 -0.5,-0.4 -0.9,-0.4 h -15.6 c -0.4,-0.1 -0.7,0.1 -0.9,0.4 z"
   id="path866" />
<path
   class="st14"
   d="m 677.7,156.81443 h 26.8 c 0.8,0 1.4,0.6 1.4,1.4 v 0.1 c 0,0.8 -0.6,1.4 -1.4,1.4 h -26.8 c -0.8,0 -1.4,-0.6 -1.4,-1.4 v -0.1 c 0.1,-0.7 0.7,-1.4 1.4,-1.4 z"
   id="path868" />
<circle
   class="st16"
   cx="704.20001"
   cy="161.51443"
   r="1.8"
   id="circle870" />
<circle
   class="st16"
   cx="678.00006"
   cy="161.51443"
   r="1.8"
   id="circle872" />
<circle
   class="st16"
   cx="691.10004"
   cy="161.51443"
   r="1.8"
   id="circle874" />
<path
   class="st14"
   d="m 689.4,105.51443 h 24 c 1.2,0 2.1,0.9 2.1,2.1 v 0.2 c 0,1.2 -0.9,2.1 -2.1,2.1 h -24 c -1.2,0 -2.1,-0.9 -2.1,-2.1 v -0.2 c 0,-1.1 0.9,-2.1 2.1,-2.1 z"
   id="path876" />
<path
   class="st17"
   d="m 692.9,156.81443 c 0,0 -1.4,1.4 -3.6,0"
   id="path878" />
<path
   class="st17"
   d="m 715.5,107.81443 v 0.3 c 0,1 -0.8,1.8 -1.8,1.8 h -24.6 c -1,0 -1.8,-0.8 -1.8,-1.8 v -0.3 z"
   id="path880" />
<rect
   x="663.70001"
   y="111.81444"
   class="st14"
   width="4.9000001"
   height="61.799999"
   id="rect882" />
<rect
   x="663.70001"
   y="111.81444"
   class="st17"
   width="4.9000001"
   height="4"
   id="rect884" />
<rect
   x="517.79999"
   y="136.21443"
   class="st14"
   width="3.5999999"
   height="23.6"
   id="rect886" />
<rect
   x="517.79999"
   y="136.21443"
   class="st17"
   width="3.5999999"
   height="1.7"
   id="rect888" />
<path
   class="st14"
   d="m 528.6,136.11443 v 0.5 c 0,0.6 -0.5,1.2 -1.2,1.2 v 0 h -15.6 c -0.6,0 -1.2,-0.5 -1.2,-1.2 v 0 -0.5 c 0,-0.6 0.5,-1.2 1.2,-1.2 h 15.6 c 0.7,0 1.2,0.6 1.2,1.2 z"
   id="path890" />
<path
   class="st17"
   d="m 528.3,135.41443 h -17.4 c 0.2,-0.3 0.6,-0.4 0.9,-0.4 h 15.6 c 0.4,-0.1 0.7,0.1 0.9,0.4 z"
   id="path892" />
<path
   class="st14"
   d="M 506.2,158.51443 H 533 c 0.8,0 1.4,0.6 1.4,1.4 v 0.1 c 0,0.8 -0.6,1.4 -1.4,1.4 h -26.8 c -0.8,0 -1.4,-0.6 -1.4,-1.4 v -0.1 c 0.1,-0.8 0.7,-1.4 1.4,-1.4 z"
   id="path894" />
<circle
   class="st16"
   cx="506.60004"
   cy="163.11443"
   r="1.8"
   id="circle896" />
<circle
   class="st16"
   cx="532.70001"
   cy="163.11443"
   r="1.8"
   id="circle898" />
<circle
   class="st16"
   cx="519.60004"
   cy="163.11443"
   r="1.8"
   id="circle900" />
<path
   class="st17"
   d="m 517.8,158.51443 c 0,0 1.4,1.4 3.6,0"
   id="path902" />
<path
   class="st27"
   d="m 609.4,87.514431 c 0,0 -4,-7.3 -2.6,-13.7 0.6,-2.7 0.4,-5.5 -0.7,-8 -0.5,-1.2 -1.2,-2.3 -1.9,-3.4"
   id="path904" />
<path
   class="st22"
   d="m 605.2,58.414431 c 0.2,1 -0.9,4.1 -0.9,4.1 0,0 -2.3,-2.4 -2.6,-3.4 -0.3,-0.9 0.2,-1.9 1.2,-2.2 0.9,-0.3 1.9,0.2 2.2,1.2 0,0.1 0.1,0.2 0.1,0.3 z"
   id="path906" />
<path
   class="st22"
   d="m 609.2,63.114431 c -0.3,0.9 -3,3 -3,3 0,0 -0.7,-3.3 -0.3,-4.2 0.3,-0.9 1.3,-1.4 2.2,-1.1 0.9,0.3 1.4,1.3 1.1,2.2 0.1,0 0,0 0,0.1 z"
   id="path908" />
<path
   class="st22"
   d="m 611.1,72.214431 c -0.8,0.6 -4.1,1 -4.1,1 0,0 1.1,-3.2 1.8,-3.8 0.8,-0.6 1.9,-0.5 2.5,0.2 0.7,0.8 0.6,2 -0.2,2.6 0,0 0,0 0,0 z"
   id="path910" />
<path
   class="st22"
   d="m 611,79.414431 c -0.6,0.7 -3.9,1.7 -3.9,1.7 0,0 0.5,-3.3 1.2,-4.1 0.6,-0.8 1.7,-0.9 2.5,-0.2 0.7,0.6 0.9,1.8 0.2,2.6 0,0 0,0 0,0 z"
   id="path912" />
<path
   class="st22"
   d="m 602.6,67.014431 c 0.8,0.5 4.2,0.5 4.2,0.5 0,0 -1.5,-3 -2.3,-3.5 -0.8,-0.5 -1.9,-0.3 -2.5,0.5 -0.5,0.8 -0.3,1.9 0.6,2.5 0,0 0,0 0,0 z"
   id="path914" />
<path
   class="st22"
   d="m 602.6,75.514431 c 1,0.2 4.2,-0.8 4.2,-0.8 0,0 -2.3,-2.4 -3.3,-2.7 -1,-0.2 -1.9,0.4 -2.1,1.4 -0.3,0.9 0.3,1.8 1.2,2.1 z"
   id="path916" />
<path
   class="st22"
   d="m 603.6,83.714431 c 0.9,0.4 4.2,-0.1 4.2,-0.1 0,0 -1.9,-2.8 -2.8,-3.2 -0.9,-0.4 -1.9,0 -2.4,0.9 -0.5,0.9 0.1,2 1,2.4 z"
   id="path918" />
<path
   class="st22"
   d="m 605.2,58.414431 c 0.2,1 -0.9,4.1 -0.9,4.1 0,0 -2.3,-2.4 -2.6,-3.4 -0.3,-0.9 0.2,-1.9 1.2,-2.2 0.9,-0.3 1.9,0.2 2.2,1.2 0,0.1 0.1,0.2 0.1,0.3 z"
   id="path920" />
<path
   class="st22"
   d="m 609.2,63.114431 c -0.3,0.9 -3,3 -3,3 0,0 -0.7,-3.3 -0.3,-4.2 0.3,-0.9 1.3,-1.4 2.2,-1.1 0.9,0.3 1.4,1.3 1.1,2.2 0.1,0 0,0 0,0.1 z"
   id="path922" />
<path
   class="st22"
   d="m 611.1,72.214431 c -0.8,0.6 -4.1,1 -4.1,1 0,0 1.1,-3.2 1.8,-3.8 0.8,-0.6 1.9,-0.5 2.5,0.2 0.7,0.8 0.6,2 -0.2,2.6 0,0 0,0 0,0 z"
   id="path924" />
<path
   class="st22"
   d="m 611,79.414431 c -0.6,0.7 -3.9,1.7 -3.9,1.7 0,0 0.5,-3.3 1.2,-4.1 0.6,-0.8 1.7,-0.9 2.5,-0.2 0.7,0.6 0.9,1.8 0.2,2.6 0,0 0,0 0,0 z"
   id="path926" />
<path
   class="st22"
   d="m 602.6,67.014431 c 0.8,0.5 4.2,0.5 4.2,0.5 0,0 -1.5,-3 -2.3,-3.5 -0.8,-0.5 -1.9,-0.3 -2.5,0.5 -0.5,0.8 -0.3,1.9 0.6,2.5 0,0 0,0 0,0 z"
   id="path928" />
<path
   class="st22"
   d="m 602.6,75.514431 c 1,0.2 4.2,-0.8 4.2,-0.8 0,0 -2.3,-2.4 -3.3,-2.7 -1,-0.2 -1.9,0.4 -2.1,1.4 -0.3,0.9 0.3,1.8 1.2,2.1 z"
   id="path930" />
<path
   class="st22"
   d="m 603.6,83.714431 c 0.9,0.4 4.2,-0.1 4.2,-0.1 0,0 -1.9,-2.8 -2.8,-3.2 -0.9,-0.4 -1.9,0 -2.4,0.9 -0.5,0.9 0.1,2 1,2.4 z"
   id="path932" />
<path
   class="st10"
   d="m 607.8,107.81443 v 0 c -2.3,0 -4.2,-1.9 -4.2,-4.2 0,-0.1 0,-0.2 0,-0.3 l 1.2,-18.799999 h 6.1 l 1.2,18.799999 c 0.1,2.3 -1.6,4.4 -4,4.5 -0.1,0 -0.2,0 -0.3,0 z"
   id="path934" />
<rect
   x="480.89996"
   y="15.514434"
   class="st13"
   width="3.5"
   height="14.4"
   id="rect936" />
<rect
   x="485.29999"
   y="15.514434"
   class="st13"
   width="3.5"
   height="14.4"
   id="rect938" />
<rect
   x="489.79999"
   y="15.514434"
   class="st13"
   width="3.5"
   height="14.4"
   id="rect940" />
<rect
   x="494.29999"
   y="15.514434"
   class="st13"
   width="3.5"
   height="14.4"
   id="rect942" />
<rect
   x="503.20001"
   y="15.514434"
   class="st13"
   width="3.5"
   height="14.4"
   id="rect944" />
<rect
   x="507.60004"
   y="15.514434"
   class="st13"
   width="3.5"
   height="14.4"
   id="rect946" />
<rect
   x="480.89996"
   y="18.214432"
   class="st13"
   width="3.5"
   height="0.69999999"
   id="rect948" />
<rect
   x="480.89996"
   y="27.114433"
   class="st13"
   width="3.5"
   height="0.69999999"
   id="rect950" />
<rect
   x="485.29999"
   y="18.214432"
   class="st13"
   width="3.5"
   height="0.69999999"
   id="rect952" />
<rect
   x="485.29999"
   y="27.114433"
   class="st13"
   width="3.5"
   height="0.69999999"
   id="rect954" />
<rect
   x="489.79999"
   y="18.214432"
   class="st13"
   width="3.5"
   height="0.69999999"
   id="rect956" />
<rect
   x="489.79999"
   y="27.114433"
   class="st13"
   width="3.5"
   height="0.69999999"
   id="rect958" />
<rect
   x="494.29999"
   y="18.214432"
   class="st13"
   width="3.5"
   height="0.69999999"
   id="rect960" />
<rect
   x="494.29999"
   y="27.114433"
   class="st13"
   width="3.5"
   height="0.69999999"
   id="rect962" />
<rect
   x="498.70001"
   y="18.214432"
   class="st13"
   width="3.5"
   height="0.69999999"
   id="rect964" />
<rect
   x="498.70001"
   y="27.114433"
   class="st13"
   width="3.5"
   height="0.69999999"
   id="rect966" />
<rect
   x="503.20001"
   y="18.214432"
   class="st13"
   width="3.5"
   height="0.69999999"
   id="rect968" />
<rect
   x="503.20001"
   y="27.114433"
   class="st13"
   width="3.5"
   height="0.69999999"
   id="rect970" />
<rect
   x="507.60004"
   y="18.214432"
   class="st13"
   width="3.5"
   height="0.69999999"
   id="rect972" />
<rect
   x="507.60004"
   y="27.114433"
   class="st13"
   width="3.5"
   height="0.69999999"
   id="rect974" />
<rect
   x="498.70001"
   y="15.514434"
   class="st13"
   width="3.5"
   height="14.4"
   id="rect976" />
<rect
   x="456.78641"
   y="230.08737"
   transform="rotate(-24.840367)"
   class="st13"
   width="3.5000706"
   height="14.40029"
   id="rect978"
   style="stroke-width:1.00002" />
<rect
   x="456.80038"
   y="232.80988"
   transform="rotate(-24.840367)"
   class="st13"
   width="3.5000706"
   height="0.70001405"
   id="rect980"
   style="stroke-width:1.00002" />
<rect
   x="456.85886"
   y="241.63338"
   transform="rotate(-24.840367)"
   class="st13"
   width="3.5000706"
   height="0.70001405"
   id="rect982"
   style="stroke-width:1.00002" />
<linearGradient
   id="SVGID_2_"
   gradientUnits="userSpaceOnUse"
   x1="1122.4083"
   y1="502.02869"
   x2="1122.4083"
   y2="628.60553"
   gradientTransform="matrix(1,0,0,-1,-590.5,672.47443)">
	<stop
   offset="0"
   style="stop-color:#808080;stop-opacity:0.25"
   id="stop984" />
	<stop
   offset="0.54"
   style="stop-color:#808080;stop-opacity:0.12"
   id="stop986" />
	<stop
   offset="1"
   style="stop-color:#808080;stop-opacity:0.1"
   id="stop988" />
</linearGradient>
<path
   class="st28"
   d="m 556.5,163.51443 -6.3,-4 c 0,-5.6 -0.1,-31.9 1.1,-35.4 0.3,-1 0.3,-2.1 0,-3.1 -0.8,-3.6 -3.8,-6.2 -7.4,-6.8 -3.4,-0.6 -8.3,-1.5 -12.2,-2.6 3.5,-0.4 6.2,-0.7 6.2,-0.7 l 0.1,-0.7 2.3,-0.1 v -0.1 h 0.2 c 5.3,-0.3 16.5,-1.4 12.7,-4.5 -1.3,-1.1 -3,-1.6 -4.8,-1.8 5.5,-1.3 14.1,-3.7 10.3,-5.999999 -3.6,-2.2 -9.2,-0.5 -12.6,0.9 l -0.2,0.1 v -0.3 l -1.3,0.3 v 0 l -0.4,0.1 v -0.4 l -18.7,2.899999 c -0.1,-2.099999 -0.4,-4.299999 -0.8,-6.399999 0.4,-2.8 2.4,-6.8 1.7,-9 -0.8,-2.5 -4.1,-3.4 -5.4,-5.6 -0.4,-0.6 -0.7,-1.2 -1.1,-1.6 -0.8,-1 -1.7,-2 -2.6,-2.8 0.1,-1.5 0.4,-2.9 1,-4.3 0.4,-0.9 0.8,-1.8 1.3,-2.6 4.5,-1.1 7.4,-5.6 6.5,-10.1 1.2,0.5 2.6,0.6 3.4,-0.4 l -0.4,-0.1 c 0,0 0.1,-0.1 0.1,-0.1 -0.7,-0.3 -1.5,-0.6 -2,-1.1 -0.1,-0.2 -0.3,-0.3 -0.4,-0.5 -0.3,-0.7 -0.3,-1.5 -0.6,-2.2 -0.2,-0.3 -0.4,-0.6 -0.6,-0.8 -0.6,-0.6 -1.3,-1 -2.1,-1.2 -0.9,-0.3 -1.8,-0.4 -2.7,-0.7 -2.4,-2.8 -6.2,-3.8 -9.7,-2.7 l -0.3,0.1 c 0.5,-2.2 -0.9,-4.3 -3.1,-4.8 -2.1,-0.4 -4.2,0.9 -4.7,3 0.1,-0.9 0.5,-1.8 1.1,-2.4 -0.1,0.1 -0.1,0.1 -0.2,0.2 -1.6,1.5 -1.7,4.1 -0.2,5.7 0,0 0,0 0,0 l 0.1,0.1 c 0.3,0.3 0.6,0.6 1,0.9 -1.4,-0.5 -2.5,-1.8 -2.7,-3.3 0,0.1 0,0.2 0,0.2 0.1,2.2 2,3.9 4.3,3.8 0,0 0,0 0,0 h 0.1 l -0.1,0.1 c -2.4,3.5 -2,8.1 0.8,11.2 0.2,0.4 0.4,0.7 0.6,1 0.1,0.1 0.2,0.2 0.3,0.3 0.7,0.7 1.6,1.1 2.6,1.2 0.2,0.2 0.3,0.4 0.5,0.6 -0.2,0.7 -0.4,1.4 -0.6,2 -0.5,1.3 -1.2,2.6 -2,3.8 -5.3,1.5 -5.8,10.6 -5.6,10.9 0.2,0.4 -0.8,14.7 3.2,31.899999 -0.2,4.9 2.7,13.1 12.9,10.9 12.7,0.7 16.9,2.6 16.9,2.6 0,0 -1.2,22.2 0.5,25.4 1.1,2 0.3,5 -0.5,7.1 -0.3,0.5 -0.5,1.1 -0.7,1.6 -0.2,0.5 -0.4,0.8 -0.4,0.8 h 0.2 c -0.7,2.3 -1.1,5 -1.1,5 0,0 15.4,3.1 22.2,1.1 2.6,-0.8 2.7,-1.5 1.9,-2.1 0.6,-0.1 1.3,-0.2 1.9,-0.4 6.5,-2.5 -3.5,-4.1 -3.5,-4.1 z"
   id="path991"
   style="fill:url(#SVGID_2_)" />
<path
   class="st29"
   d="m 522.9,58.214431 c 0,4.9 -4,8.9 -8.9,8.9 -4.9,0 -8.9,-4 -8.9,-8.9 0,-4.9 4,-8.9 8.9,-8.9 4.9,0 8.9,4 8.9,8.9 z"
   id="path993" />
<path
   class="st20"
   d="m 542.9,100.11443 0.9,4.5 c 0,0 1,-0.2 2.5,-0.5 5.1,-1.1 15.8,-3.7 11.7,-6.199999 -3.6,-2.1 -9.1,-0.5 -12.3,0.9 -1.2,0.5 -2.1,1 -2.5,1.199999 -0.2,0 -0.3,0.1 -0.3,0.1 z"
   id="path995" />
<path
   class="st17"
   d="m 543.2,101.41443 0.6,3.2 c 0,0 1,-0.2 2.5,-0.5 l -0.7,-5.299999 c -1.2,0.5 -2.1,1 -2.5,1.199999 z"
   id="path997" />
<polygon
   class="st21"
   points="1096.2,177.4 1093.8,177.9 1093.8,183.7 1096.9,183.1 "
   id="polygon999"
   transform="translate(-550.8,-78.785569)" />
<polygon
   class="st17"
   points="1094.9,177.6 1093.8,177.9 1093.8,183.7 1095.2,183.4 "
   id="polygon1001"
   transform="translate(-550.8,-78.785569)" />
<path
   class="st22"
   d="m 514.4,80.314431 c 0,0 6,-3.1 8.2,6.7 2.2,9.9 2.2,14.399999 2.2,14.399999 l 18.8,-2.899999 0.3,6.799999 c 0,0 -20.2,5.6 -22.7,5 -2.5,-0.6 -10,-14.599999 -10,-14.599999 0,0 -6.8,-10.8 3.2,-15.4 z"
   id="path1003" />
<g
   class="st23"
   id="g1015"
   transform="translate(-550.8,-78.785569)">
	<path
   d="m 1093.7,178.9 0.9,4.5 c 0,0 1,-0.2 2.5,-0.5 5.1,-1.1 15.8,-3.7 11.7,-6.2 -3.6,-2.1 -9.1,-0.5 -12.3,0.9 -1.2,0.5 -2.1,1 -2.5,1.2 -0.2,0 -0.3,0.1 -0.3,0.1 z"
   id="path1005" />
	<path
   class="st17"
   d="m 1094,180.2 0.6,3.2 c 0,0 1,-0.2 2.5,-0.5 l -0.7,-5.3 c -1.2,0.5 -2.1,1 -2.5,1.2 z"
   id="path1007" />
	<polygon
   points="1096.2,177.4 1093.8,177.9 1093.8,183.7 1096.9,183.1 "
   id="polygon1009" />
	<polygon
   class="st17"
   points="1094.9,177.6 1093.8,177.9 1093.8,183.7 1095.2,183.4 "
   id="polygon1011" />
	<path
   d="m 1065.7,159.6 c 0,0 6,-3.1 8.2,6.7 2.2,9.9 2.2,14.4 2.2,14.4 l 18.8,-2.9 0.3,6.8 c 0,0 -20.2,5.6 -22.7,5 -2.5,-0.6 -10,-14.6 -10,-14.6 0,0 -6.8,-10.8 3.2,-15.4 z"
   id="path1013" />
</g>
<path
   class="st30"
   d="m 548.6,157.61443 7.4,4.7 c 0,0 9.8,1.6 3.1,3.7 -6.7,2 -21.8,-1.1 -21.8,-1.1 0,0 1.2,-6.8 2.4,-7.7 1.2,-0.9 8.9,0.4 8.9,0.4 z"
   id="path1017" />
<path
   class="st31"
   d="m 521.1,107.21443 c 0,0 3.7,2.1 10.3,4.1 3.9,1.2 8.8,2.1 12.2,2.6 3.6,0.5 6.4,3.2 7.3,6.7 0.3,1 0.2,2.1 0,3.1 -1.3,3.9 -1,35.7 -1,35.7 l -11.6,0.6 c 0,0 1.8,-5.8 -0.4,-8.9 -2.3,-3.1 1.5,-25.4 1.5,-25.4 0,0 -4.1,-1.9 -16.6,-2.6 -11.7,2.5 -15.9,-10.4 -14,-13.9 1.9,-3.4 12.3,-2 12.3,-2 z"
   id="path1019" />
<g
   class="st23"
   id="g1025"
   transform="translate(-550.8,-78.785569)">
	<path
   d="m 1099.4,236.4 7.4,4.7 c 0,0 9.8,1.6 3.1,3.7 -6.7,2 -21.8,-1.1 -21.8,-1.1 0,0 1.2,-6.8 2.4,-7.7 1.2,-0.9 8.9,0.4 8.9,0.4 z"
   id="path1021" />
	<path
   d="m 1071.9,186 c 0,0 3.7,2.1 10.3,4.1 3.9,1.2 8.8,2.1 12.2,2.6 3.6,0.5 6.4,3.2 7.3,6.7 0.3,1 0.2,2.1 0,3.1 -1.3,3.9 -1,35.7 -1,35.7 l -11.6,0.6 c 0,0 1.8,-5.8 -0.4,-8.9 -2.3,-3.1 1.5,-25.4 1.5,-25.4 0,0 -4.1,-1.9 -16.6,-2.6 -11.7,2.5 -15.9,-10.4 -14,-13.9 1.9,-3.4 12.3,-2 12.3,-2 z"
   id="path1023" />
</g>
<path
   class="st30"
   d="m 544.9,160.11443 7.4,4.7 c 0,0 9.8,1.6 3.1,3.7 -6.7,2 -21.8,-1.1 -21.8,-1.1 0,0 1.2,-6.8 2.4,-7.7 1.3,-0.9 8.9,0.4 8.9,0.4 z"
   id="path1027" />
<path
   class="st31"
   d="m 519.1,125.71443 c 12.5,0.7 16.6,2.6 16.6,2.6 0,0 -1.2,21.7 0.5,24.9 1.8,3.4 -1.6,9.4 -1.6,9.4 l 11.6,-0.6 c 0,0 0,-0.4 0,-1 0,-5.5 -0.1,-31.3 1,-34.7 0.3,-1 0.3,-2.1 0,-3.1 -0.8,-3.5 -3.7,-6.1 -7.3,-6.7 -3.4,-0.5 -8.3,-1.5 -12.2,-2.6 l -0.2,-0.1 c -6.5,-2 -10.1,-4.1 -10.1,-4.1 0,0 -7.7,-0.5 -9.7,2.9 -0.2,0.5 -1.3,1.3 -1.4,2.1 -0.1,4.8 2.6,13.1 12.8,11 z"
   id="path1029" />
<path
   class="st20"
   d="m 537.4,105.41443 0.2,4.6 c 0,0 1,0 2.5,-0.1 5.2,-0.3 16.2,-1.3 12.5,-4.4 -3.2,-2.6 -8.9,-1.8 -12.3,-0.9 -1.3,0.3 -2.2,0.6 -2.6,0.8 -0.2,0 -0.3,0 -0.3,0 z"
   id="path1031" />
<path
   class="st20"
   d="m 508,74.114431 c 0,0 1.5,1.3 3.3,2.7 2.1,0.6 4.5,1.1 6.2,1.4 -0.5,-2 -0.1,-4.2 0.7,-6.1 0.9,-2 2,-3.9 3.4,-5.6 l -10.3,-3.7 c 0.7,2.1 0.2,4.5 -0.5,6.5 -0.7,1.7 -1.7,3.4 -2.8,4.8 z"
   id="path1033" />
<path
   class="st17"
   d="m 537.5,106.71443 0.2,3.3 c 0,0 1,0 2.5,-0.1 l 0.1,-5.3 c -1.3,0.3 -2.2,0.6 -2.6,0.8 z"
   id="path1035" />
<polygon
   class="st21"
   points="1090.9,183.1 1088.4,183.2 1087.6,188.9 1090.8,188.8 "
   id="polygon1037"
   transform="translate(-550.8,-78.785569)" />
<path
   class="st10"
   d="m 506.7,116.01443 c 6.7,6.9 19.1,-1.3 22.5,-3.8 0.5,-0.4 0.8,-0.6 0.8,-0.6 -1.2,-1.3 -3.2,-2.4 -4,-5.6 -0.7,-3.2 -1.2,-6.499999 -1.5,-9.799999 -0.2,-2.6 2.5,-7.6 1.7,-10.1 -0.8,-2.5 -4,-3.3 -5.3,-5.5 -0.4,-0.6 -0.7,-1.1 -1.1,-1.6 -2.5,-3.5 -6.8,-5.8 -6.8,-5.8 -9.2,-3.2 -10,10 -9.7,10.5 0.3,0.4 -0.8,15 3.4,32.299999 z"
   id="path1039" />
<path
   class="st9"
   d="m 506.6,97.014431 c 0,0 5.4,14.999999 7.7,15.899999 1.4,0.5 8.8,0 14.8,-0.6 0.5,-0.4 0.8,-0.6 0.8,-0.6 -1.2,-1.3 -2.2,-3.9 -3,-7 h -7.8 c 0,0 0.6,-4.5 -0.1,-14.599999 -0.7,-10.1 -7.1,-7.9 -7.1,-7.9 -10.5,3 -5.3,14.8 -5.3,14.8 z"
   id="path1041" />
<polygon
   class="st17"
   points="1089.6,183.1 1088.4,183.2 1087.6,188.9 1089,188.9 "
   id="polygon1043"
   transform="translate(-550.8,-78.785569)" />
<path
   class="st10"
   d="m 512.2,81.514431 c 0,0 6.4,-2.2 7.1,7.9 0.7,10.1 0.1,14.599999 0.1,14.599999 l 19,-0.1 -0.7,6.8 c 0,0 -20.8,2.5 -23.2,1.5 -2.4,-1 -7.7,-15.899999 -7.7,-15.899999 0,0 -5.2,-11.7 5.4,-14.8 z"
   id="path1045" />
<path
   class="st17"
   d="m 512.4,66.614431 c 0.3,-1.5 -1.2,-1.5 -1.7,-3 l 10.3,3.7 c -0.8,0.9 -1.5,1.9 -2.1,3 -0.5,0.1 -1.1,0.2 -1.7,0.2 -2.4,0.3 -3.1,-2.2 -4.8,-3.9 z"
   id="path1047" />
<circle
   transform="rotate(-2.7501331)"
   class="st20"
   cx="513.91919"
   cy="85.862373"
   id="ellipse1049"
   r="8.6995792"
   style="stroke-width:0.999952" />
<path
   class="st9"
   d="m 513,88.014431 c 0,0 2.7,12.999999 6,14.299999 3.2,1.3 1.8,1.6 1.8,1.6"
   id="path1051" />
<path
   class="st9"
   d="m 524.3,95.314431 c 0,0 -2.3,0.7 -4.9,-2.7"
   id="path1053" />
<circle
   class="st29"
   cx="507.00006"
   cy="49.114433"
   r="4"
   id="circle1055" />
<path
   class="st29"
   d="m 504.3,51.214431 c -1.4,-1.5 -1.4,-3.9 0,-5.4 -0.1,0.1 -0.1,0.1 -0.2,0.2 -1.6,1.5 -1.7,4 -0.2,5.6 1.5,1.6 4,1.7 5.6,0.2 v 0 c 0.1,-0.1 0.1,-0.1 0.2,-0.2 -1.6,1.2 -4,1.1 -5.4,-0.4 z"
   id="path1057" />
<path
   class="st29"
   d="m 506.5,52.714431 c -2.1,0.1 -3.9,-1.4 -4.2,-3.5 0,0.1 0,0.2 0,0.2 0.1,2.2 2,3.8 4.2,3.7 2.2,-0.1 3.8,-2 3.7,-4.2 0,-0.1 0,-0.2 0,-0.2 0,2.1 -1.6,3.8 -3.7,4 z"
   id="path1059" />
<path
   class="st17"
   d="m 520.6,52.514431 c 0.9,0.5 2,0.6 3,0.9 1,0.3 2,0.8 2.4,1.7 0.3,0.7 0.3,1.5 0.6,2.2 0.5,1 1.6,1.4 2.6,1.8 -0.9,1.2 -2.8,0.9 -4,0.1 -1.2,-0.8 -2.3,-2 -3.7,-2.3 -1.4,-0.3 -2.9,0.4 -3.7,1.6 -0.4,0.7 -0.5,1.5 -0.7,2.2 -0.5,2 -1.5,4 -3.2,5.1 -1.7,1.1 -4.3,1.1 -5.7,-0.4 -0.8,-0.9 -1.1,-2.2 -1.3,-3.3 -0.1,-0.6 -0.2,-1.1 -0.2,-1.7 0.1,-1.4 1,-2.6 2,-3.7 1.1,-1.2 2.3,-2.4 3.5,-3.6 1,-1 2.2,-2.7 3.8,-2.9 1.9,0 3.2,1.6 4.6,2.3 z"
   id="path1061" />
<path
   class="st29"
   d="m 520.4,52.314431 c 0.9,0.5 2,0.6 3,0.9 1,0.3 2,0.8 2.4,1.7 0.3,0.7 0.3,1.5 0.6,2.2 0.5,1 1.6,1.4 2.6,1.8 -0.9,1.2 -2.8,0.9 -4,0.1 -1.2,-0.8 -2.3,-2 -3.7,-2.3 -1.4,-0.3 -2.9,0.4 -3.7,1.6 -0.4,0.7 -0.5,1.5 -0.7,2.2 -0.5,2 -1.5,4 -3.2,5.1 -1.7,1.1 -4.3,1.1 -5.7,-0.4 -0.8,-0.9 -1.1,-2.2 -1.3,-3.3 -0.1,-0.6 -0.2,-1.1 -0.2,-1.7 0.1,-1.4 1,-2.6 2,-3.7 1.1,-1.2 2.3,-2.4 3.5,-3.6 1,-1 2.2,-2.7 3.8,-2.9 1.9,0 3.1,1.6 4.6,2.3 z"
   id="path1063" />
<path
   class="st14"
   d="m 497.3,107.21443 h 24 c 1.2,0 2.1,0.9 2.1,2.1 v 0.2 c 0,1.2 -0.9,2.1 -2.1,2.1 h -24 c -1.2,0 -2.1,-0.9 -2.1,-2.1 v -0.2 c 0,-1.1 1,-2.1 2.1,-2.1 z"
   id="path1065" />
<path
   class="st17"
   d="m 495.2,109.51443 v 0.3 c 0,1 0.8,1.8 1.8,1.8 h 24.6 c 1,0 1.8,-0.8 1.8,-1.8 v -0.3 z"
   id="path1067" />
<rect
   x="544.89996"
   y="111.81444"
   class="st14"
   width="4.9000001"
   height="61.799999"
   id="rect1069" />
<rect
   x="544.89996"
   y="111.81444"
   class="st17"
   width="4.9000001"
   height="4"
   id="rect1071" />
<rect
   x="542.60004"
   y="107.31444"
   class="st14"
   width="128.3"
   height="8"
   id="rect1073" />
</svg>
